<svg width="476" height="476" viewBox="0 0 476 476" fill="none" xmlns="http://www.w3.org/2000/svg">
<rect width="476" height="476" rx="100" fill="url(#paint0_linear_310_2282)"/>
<path d="M317.436 279.506L356 349.775H296.74L265.357 285.732H243.538V349.775H191.838V241.376L243.538 213.043V240.811H279.893C290.58 240.811 301.397 234.114 301.397 221.332C301.397 208.55 290.58 201.853 279.893 201.853H265.635V157.214H287.176C327.103 157.214 353.931 183.211 353.931 221.906C353.931 253.622 335.424 272.272 317.427 279.516L317.436 279.506ZM96 97.8999L232.35 177.522L96 257.144V97.9093V97.8999ZM114.516 171.277H127.003V202.879L182.098 169.808L114.526 130.35V171.287L114.516 171.277Z" fill="#00DC89"/>
<defs>
<linearGradient id="paint0_linear_310_2282" x1="0" y1="0" x2="476" y2="476" gradientUnits="userSpaceOnUse">
<stop stop-color="#1A303C"/>
<stop offset="1" stop-color="#19372E"/>
</linearGradient>
</defs>
</svg>
